#!OML:ASF I:\Actors\actors\Patient Classification 2\Patient 1\Session 1\actor1.ASF
:FULLY-SPECIFIED
:DEGREES
118
root -1.00832 18.166 5.67619 0.201447 -1.91922 -5.47764
lowerback 3.80021 0.459759 2.84603
upperback -0.68557 0.800745 1.82527
thorax -2.82455 0.367273 0.232139
lowerneck -10.4187 -1.3137 -2.74244
upperneck 22.1812 -2.12432 3.59893
head 8.6925 -0.863118 1.45424
rclavicle 3.42049e-016 6.75868e-015
rhumerus -47.6841 -0.111369 -87.374
rradius 48.8837
rwrist 12.448
rhand -7.97155 -31.5104
rfingers 7.12502
rthumb 17.9362 -60.7033
lclavicle 3.42049e-016 6.75868e-015
lhumerus -40.6814 6.57297 88.7086
lradius 36.8334
lwrist -11.577
lhand -0.801905 -24.546
lfingers 7.12502
lthumb 24.8221 3.86285
rfemur 0 0 0
rtibia 0
rfoot 0 0
rtoes 0
lfemur 17.7553 -8.00641 -11.6825
ltibia -19.4894
lfoot -3.63885 22.8815
ltoes -10.4363
119
root -1.00853 18.1652 5.678 0.172008 -1.95492 -5.51483
lowerback 3.80851 0.481299 2.86141
upperback -0.714795 0.831489 1.82357
thorax -2.85864 0.381787 0.219733
lowerneck -10.6083 -1.31475 -2.73071
upperneck 23.0112 -2.1176 3.46741
head 9.01138 -0.86726 1.41374
rclavicle 3.87514e-015 6.55989e-015
rhumerus -47.5536 0.448258 -87.8107
rradius 48.9118
rwrist 11.5792
rhand -7.34641 -33.8401
rfingers 7.12502
rthumb 18.5376 -62.9768
lclavicle 3.87514e-015 6.55989e-015
lhumerus -40.7543 6.36982 88.7751
lradius 36.9352
lwrist -11.4286
lhand -0.693896 -24.3489
lfingers 7.12502
lthumb 24.9256 4.04571
rfemur 0 0 0
rtibia 0
rfoot 0 0
rtoes 0
lfemur 17.8248 -7.93007 -11.64
ltibia -19.5275
lfoot -3.61369 22.8443
ltoes -10.7622
120
root -1.00842 18.1642 5.68018 0.164217 -1.99002 -5.55706
lowerback 3.73353 0.507032 2.8539
upperback -0.723963 0.863244 1.85152
thorax -2.82592 0.398265 0.251443
lowerneck -10.8118 -1.30231 -2.74732
upperneck 23.9105 -2.08052 3.31549
head 9.36027 -0.862304 1.37466
rclavicle 2.46811e-015 -1.23246e-014
rhumerus -47.6087 1.34914 -88.3179
rradius 49.8285
rwrist 11.24
rhand -6.20403 -34.4412
rfingers 7.12502
rthumb 19.6362 -63.4695
lclavicle 2.46811e-015 -1.23246e-014
lhumerus -40.8165 6.06256 88.9741
lradius 37.1968
lwrist -11.178
lhand -0.46476 -23.9788
lfingers 7.12502
lthumb 25.1451 4.38519
rfemur 0 0 0
rtibia 0
rfoot 0 0
rtoes 0
lfemur 17.8772 -7.88455 -11.5937
ltibia -19.5656
lfoot -3.58386 22.8237
ltoes -11.1199
121
root -1.00748 18.163 5.68232 0.139955 -2.01262 -5.57507
lowerback 3.65084 0.552284 2.80909
upperback -0.707461 0.918051 1.87742
thorax -2.76257 0.427289 0.300768
lowerneck -11.0234 -1.31621 -2.77243
upperneck 24.8507 -2.08751 3.20585
head 9.73252 -0.874911 1.34674
rclavicle -3.42185e-015 -2.38542e-014
rhumerus -47.929 2.6496 -89.0915
rradius 51.1042
rwrist 8.81037
rhand -4.9592 -36.0714
rfingers 7.12502
rthumb 20.8326 -64.9729
lclavicle -3.42185e-015 -2.38542e-014
lhumerus -40.9091 5.33759 89.3982
lradius 37.7772
lwrist -10.4737
lhand -0.100811 -23.2216
lfingers 7.12502
lthumb 25.4938 5.09295
rfemur 0 0 0
rtibia 0
rfoot 0 0
rtoes 0
lfemur 17.9402 -7.86709 -11.5814
ltibia -19.5979
lfoot -3.56079 22.8111
ltoes -10.9617
122
root -1.00577 18.1614 5.68426 0.0838749 -2.00879 -5.5859
lowerback 3.64037 0.612866 2.76275
upperback -0.678839 0.99554 1.88562
thorax -2.7269 0.46725 0.330799
lowerneck -11.25 -1.34435 -2.70294
upperneck 25.7189 -2.10985 3.01591
head 10.0863 -0.895377 1.27158
rclavicle 1.75276e-015 -1.49089e-015
rhumerus -48.5365 3.85579 -89.8145
rradius 53.244
rwrist 6.9948
rhand -5.80493 -34.1866
rfingers 7.12502
rthumb 20.0199 -63.1753
lclavicle 1.75276e-015 -1.49089e-015
lhumerus -41.1119 4.11852 90.0479
lradius 38.812
lwrist -9.20677
lhand 0.392409 -22.1716
lfingers 7.12502
lthumb 25.9662 6.07464
rfemur 0 0 0
rtibia 0
rfoot 0 0
rtoes 0
lfemur 18.0209 -7.87125 -11.5809
ltibia -19.6271
lfoot -3.57721 22.8033
ltoes -10.6821
123
root -1.00208 18.1606 5.68592 0.0396007 -1.97221 -5.60031
lowerback 3.66401 0.66049 2.75737
upperback -0.654893 1.05904 1.88551
thorax -2.71471 0.49924 0.329797
lowerneck -11.4534 -1.37281 -2.66486
upperneck 26.4941 -2.13905 2.88963
head 10.4082 -0.915672 1.2219
rclavicle 8.43049e-015 2.3556e-014
rhumerus -49.3755 4.97938 -90.5519
rradius 55.9132
rwrist 4.9438
rhand -4.97361 -33.0389
rfingers 7.12502
rthumb 20.8188 -61.942
lclavicle 8.43049e-015 2.3556e-014
lhumerus -41.3998 3.10409 90.6685
lradius 40.1828
lwrist -7.97105
lhand 0.922427 -21.299
lfingers 7.12502
lthumb 26.4736 6.8718
rfemur 0 0 0
rtibia 0
rfoot 0 0
rtoes 0
lfemur 18.0789 -7.86579 -11.5797
ltibia -19.6585
lfoot -3.59054 22.7904
ltoes -10.7383
124
root -0.99619 18.1618 5.68757 0.0323678 -1.92743 -5.59069
lowerback 3.62494 0.695595 2.79788
upperback -0.616381 1.10418 1.86359
thorax -2.65123 0.521798 0.282697
lowerneck -11.6135 -1.40447 -2.66181
upperneck 27.2148 -2.19269 2.86772
head 10.7084 -0.939245 1.21178
rclavicle -3.29276e-015 1.38155e-014
rhumerus -50.2381 5.98978 -91.2899
rradius 58.7417
rwrist 2.45842
rhand -4.18892 -32.7286
rfingers 7.12502
rthumb 21.5725 -61.5471
lclavicle -3.29276e-015 1.38155e-014
lhumerus -41.7226 2.05699 91.3274
lradius 41.7592
lwrist -6.4488
lhand 1.18821 -20.639
lfingers 7.12502
lthumb 26.728 7.4932
rfemur 0 0 0
rtibia 0
rfoot 0 0
rtoes 0
lfemur 18.0995 -7.84606 -11.6136
ltibia -19.6989
lfoot -3.52112 22.7806
ltoes -10.8912
125
root -0.990076 18.1622 5.68877 0.0155038 -1.87608 -5.56806
lowerback 3.52931 0.715735 2.85225
upperback -0.533642 1.12556 1.82464
thorax -2.51007 0.533332 0.212857
lowerneck -11.6932 -1.42383 -2.61099
upperneck 27.8311 -2.24622 2.86891
head 10.9569 -0.955917 1.20126
rclavicle 3.13474e-015 -6.4605e-015
rhumerus -50.9251 6.76895 -91.9526
rradius 61.4231
rwrist 0.06286
rhand -4.13502 -33.6101
rfingers 7.12502
rthumb 21.6243 -62.4226
lclavicle 3.13474e-015 -6.4605e-015
lhumerus -42.0182 0.791864 92.0445
lradius 43.4092
lwrist -4.51304
lhand 1.186 -20.0543
lfingers 7.12502
lthumb 26.7259 8.07822
rfemur 0 0 0
rtibia 0
rfoot 0 0
rtoes 0
lfemur 18.1268 -7.8385 -11.6645
ltibia -19.7446
lfoot -3.40339 22.7563
ltoes -11.0119
126
root -0.985107 18.1616 5.68817 -0.0188246 -1.79835 -5.55659
lowerback 3.51513 0.710363 2.92445
upperback -0.486081 1.11793 1.76707
thorax -2.45074 0.529041 0.11426
lowerneck -11.7682 -1.44069 -2.7057
upperneck 28.4485 -2.30926 3.03154
head 11.2122 -0.972722 1.27376
rclavicle -2.81482e-015 3.97569e-015
rhumerus -51.3718 7.25204 -92.5236
rradius 63.5988
rwrist -1.78858
rhand -4.90088 -35.336
rfingers 7.12502
rthumb 20.8886 -64.2314
lclavicle -2.81482e-015 3.97569e-015
lhumerus -42.3499 -0.0776689 92.5806
lradius 45.0939
lwrist -2.67923
lhand 0.70384 -20.0309
lfingers 7.12502
lthumb 26.2644 8.17121
rfemur 0 0 0
rtibia 0
rfoot 0 0
rtoes 0
lfemur 18.1477 -7.81212 -11.6874
ltibia -19.7769
lfoot -3.33511 22.6559
ltoes -10.985
127
root -0.981444 18.1623 5.68521 -0.0413622 -1.703 -5.54555
lowerback 3.51928 0.699082 2.99031
upperback -0.463449 1.10311 1.68116
thorax -2.42712 0.520567 -0.00993145
lowerneck -11.9138 -1.48237 -2.91623
upperneck 29.1345 -2.42669 3.34437
head 11.5178 -1.00742 1.41623
rclavicle -1.19108e-014 -2.44505e-014
rhumerus -51.4165 7.43032 -92.9322
rradius 65.0404
rwrist -2.1789
rhand -5.85518 -36.694
rfingers 7.12502
rthumb 19.9716 -65.6877
lclavicle -1.19108e-014 -2.44505e-014
lhumerus -42.8062 -1.2721 93.2101
lradius 46.9168
lwrist -0.28022
lhand -0.514825 -20.4772
lfingers 7.12502
lthumb 25.0972 7.89349
rfemur 0 0 0
rtibia 0
rfoot 0 0
rtoes 0
lfemur 18.1287 -7.78662 -11.6985
ltibia -19.7843
lfoot -3.27782 22.5109
ltoes -10.7099
128
root -0.97823 18.1634 5.67969 -0.0877103 -1.62343 -5.48517
lowerback 3.51879 0.677512 2.95111
upperback -0.403579 1.06829 1.58006
thorax -2.36462 0.504214 -0.0896091
lowerneck -12.0122 -1.50622 -2.99204
upperneck 29.7121 -2.53537 3.59905
head 11.7733 -1.03094 1.51593
rclavicle -1.27145e-014 -2.40529e-014
rhumerus -50.9759 7.58556 -93.2494
rradius 65.7837
rwrist -1.2
rhand -6.45065 -37.4145
rfingers 7.12502
rthumb 19.3991 -66.4668
lclavicle -1.27145e-014 -2.40529e-014
lhumerus -43.325 -2.95644 93.9687
lradius 48.8796
lwrist 2.60415
lhand -1.61295 -20.3979
lfingers 7.12502
lthumb 24.0446 8.11584
rfemur 0 0 0
rtibia 0
rfoot 0 0
rtoes 0
lfemur 18.1294 -7.77276 -11.7724
ltibia -19.786
lfoot -3.16952 22.4088
ltoes -10.6433
129
root -0.975266 18.164 5.67255 -0.165207 -1.59748 -5.42418
lowerback 3.60235 0.658202 2.87084
upperback -0.341327 1.03887 1.50221
thorax -2.34801 0.490707 -0.123817
lowerneck -12.0533 -1.50801 -2.93983
upperneck 30.1645 -2.57944 3.64488
head 11.9631 -1.03757 1.5236
rclavicle -6.58319e-015 3.97569e-016
rhumerus -50.2844 8.16819 -93.6743
rradius 66.2401
rwrist -0.267963
rhand -6.84138 -38.7533
rfingers 7.12502
rthumb 19.0234 -67.843
lclavicle -6.58319e-015 3.97569e-016
lhumerus -43.7377 -4.18977 94.5748
lradius 50.85
lwrist 5.07935
lhand -2.08999 -19.671
lfingers 7.12502
lthumb 23.5871 8.90244
rfemur 0 0 0
rtibia 0
rfoot 0 0
rtoes 0
lfemur 18.1775 -7.72536 -11.8499
ltibia -19.7955
lfoot -3.09409 22.3673
ltoes -10.6102
130
root -0.973652 18.1632 5.66566 -0.233921 -1.58063 -5.46748
lowerback 3.6979 0.675505 2.8601
upperback -0.27526 1.063 1.48251
thorax -2.33293 0.503372 -0.140229
lowerneck -12.148 -1.55801 -2.91898
upperneck 30.6037 -2.65971 3.61345
head 12.1619 -1.0726 1.50233
rclavicle -4.6497e-015 -1.03368e-014
rhumerus -49.6268 9.10739 -94.1191
rradius 66.8215
rwrist -0.186509
rhand -7.03987 -40.128
rfingers 7.12502
rthumb 18.8325 -69.2364
lclavicle -4.6497e-015 -1.03368e-014
lhumerus -43.9594 -5.1011 95.1234
lradius 52.7626
lwrist 7.21956
lhand -2.28478 -18.987
lfingers 7.12502
lthumb 23.4002 9.61036
rfemur 0 0 0
rtibia 0
rfoot 0 0
rtoes 0
lfemur 18.2207 -7.60595 -11.7892
ltibia -19.8002
lfoot -3.03422 22.2559
ltoes -10.4394
131
root -0.970908 18.1623 5.65881 -0.268291 -1.6059 -5.51441
lowerback 3.76927 0.734228 2.83457
upperback -0.204561 1.14114 1.48922
thorax -2.29906 0.543551 -0.12391
lowerneck -12.3408 -1.64597 -3.04459
upperneck 31.0981 -2.8002 3.71801
head 12.4131 -1.13261 1.55015
rclavicle 5.5287e-016 -7.35503e-015
rhumerus -49.1034 10.0836 -94.3894
rradius 67.5466
rwrist -0.750088
rhand -6.88078 -39.9371
rfingers 7.12502
rthumb 18.9855 -69.0305
lclavicle 5.5287e-016 -7.35503e-015
lhumerus -44.0858 -6.15753 95.7691
lradius 54.7008
lwrist 9.57937
lhand -2.66337 -18.7077
lfingers 7.12502
lthumb 23.037 9.93545
rfemur 0 0 0
rtibia 0
rfoot 0 0
rtoes 0
lfemur 18.245 -7.47882 -11.733
ltibia -19.807
lfoot -2.98175 22.1474
ltoes -10.5293
132
root -0.965306 18.1634 5.6513 -0.259366 -1.70903 -5.47656
lowerback 3.85736 0.820555 2.74268
upperback -0.16869 1.25453 1.48657
thorax -2.3109 0.601273 -0.0827126
lowerneck -12.4946 -1.71518 -3.20917
upperneck 31.5225 -2.89787 3.81078
head 12.6294 -1.18014 1.606
rclavicle -8.16881e-015 -1.39149e-015
rhumerus -48.8988 11.3225 -94.7934
rradius 68.9427
rwrist -1.38916
rhand -6.41368 -40.0337
rfingers 7.12502
rthumb 19.4346 -69.0825
lclavicle -8.16881e-015 -1.39149e-015
lhumerus -44.2038 -7.38986 96.5304
lradius 56.7904
lwrist 12.2027
lhand -3.5847 -18.6022
lfingers 7.12502
lthumb 22.1527 10.1486
rfemur 0 0 0
rtibia 0
rfoot 0 0
rtoes 0
lfemur 18.249 -7.42657 -11.8032
ltibia -19.8316
lfoot -2.97828 22.1872
ltoes -10.6616
